<svg width="15" height="15" viewBox="0 0 15 15" fill="none" xmlns="http://www.w3.org/2000/svg">
<path d="M3.32432 9.06465L2.80219 11.0138L0.893818 11.0542C0.323496 9.99638 0 8.78609 0 7.49996C0 6.25628 0.302461 5.08347 0.838594 4.05078H0.839004L2.53799 4.36227L3.28225 6.05105C3.12647 6.50519 3.04157 6.99269 3.04157 7.49996C3.04163 8.05051 3.14136 8.578 3.32432 9.06465Z" fill="#FBBB00"/>
<path d="M14.8691 6.09912C14.9553 6.55281 15.0002 7.02136 15.0002 7.50022C15.0002 8.03717 14.9437 8.56094 14.8362 9.06616C14.4711 10.7854 13.5171 12.2866 12.1955 13.349L12.1951 13.3486L10.0551 13.2394L9.75227 11.3487C10.6292 10.8344 11.3145 10.0296 11.6755 9.06616H7.66504V6.09912H11.734H14.8691Z" fill="#518EF8"/>
<path d="M12.1951 13.3486L12.1956 13.349C10.9103 14.3821 9.27755 15.0002 7.50023 15.0002C4.64405 15.0002 2.16081 13.4038 0.894043 11.0545L3.32454 9.06494C3.95791 10.7553 5.58855 11.9586 7.50023 11.9586C8.32192 11.9586 9.09172 11.7365 9.75228 11.3487L12.1951 13.3486Z" fill="#28B446"/>
<path d="M12.287 1.72664L9.85734 3.71578C9.17369 3.28846 8.36557 3.0416 7.49979 3.0416C5.54484 3.0416 3.8837 4.30011 3.28206 6.05109L0.838789 4.05082H0.838379C2.0866 1.64423 4.60115 0 7.49979 0C9.31956 0 10.9881 0.648223 12.287 1.72664Z" fill="#F14336"/>
</svg>
